<svg xmlns="http://www.w3.org/2000/svg" viewBox="0 0 64 64" width="64" height="64">
  <defs>
    <linearGradient id="aiGrad" x1="0%" y1="0%" x2="100%" y2="100%">
      <stop offset="0%" style="stop-color:#007acc;stop-opacity:1" />
      <stop offset="100%" style="stop-color:#005a9c;stop-opacity:1" />
    </linearGradient>
    <linearGradient id="brainGrad" x1="0%" y1="0%" x2="100%" y2="100%">
      <stop offset="0%" style="stop-color:#0099ff;stop-opacity:1" />
      <stop offset="100%" style="stop-color:#007acc;stop-opacity:1" />
    </linearGradient>
  </defs>

  <!-- Contorno del cerebro -->
  <path d="M20 18 C16 18 12 22 12 26 C12 28 13 30 14 32 C12 34 12 37 14 39 C12 42 14 46 18 48 C20 50 24 52 28 52 C30 54 34 54 36 52 C40 52 44 50 46 48 C50 46 52 42 50 39 C52 37 52 34 50 32 C51 30 52 28 52 26 C52 22 48 18 44 18 C42 16 38 16 36 18 C34 16 30 16 28 18 C26 16 22 16 20 18 Z"
        fill="url(#brainGrad)" stroke="#004a7c" stroke-width="1.5"/>

  <!-- Red neural interior -->
  <circle cx="22" cy="24" r="2" fill="#ffcc00"/>
  <circle cx="32" cy="26" r="2" fill="#ffcc00"/>
  <circle cx="42" cy="24" r="2" fill="#ffcc00"/>
  <circle cx="26" cy="34" r="2" fill="#ff6666"/>
  <circle cx="38" cy="34" r="2" fill="#ff6666"/>
  <circle cx="32" cy="42" r="2" fill="#66ff66"/>

  <!-- Conexiones neurales -->
  <path d="M22 24 L32 26 L42 24" stroke="#e0f3ff" stroke-width="1.5" fill="none" opacity="0.8"/>
  <path d="M32 26 L26 34 M32 26 L38 34" stroke="#e0f3ff" stroke-width="1.5" fill="none" opacity="0.8"/>
  <path d="M26 34 L32 42 M38 34 L32 42" stroke="#e0f3ff" stroke-width="1.5" fill="none" opacity="0.8"/>
  <path d="M22 24 L26 34 M42 24 L38 34" stroke="#e0f3ff" stroke-width="1" fill="none" opacity="0.6"/>

  <!-- Circuitos externos -->
  <rect x="8" y="56" width="48" height="4" rx="2" fill="url(#aiGrad)"/>
  <circle cx="16" cy="58" r="1.5" fill="#ffcc00"/>
  <circle cx="32" cy="58" r="1.5" fill="#ff6666"/>
  <circle cx="48" cy="58" r="1.5" fill="#66ff66"/>

  <!-- Ondas de procesamiento -->
  <path d="M6 32 Q12 30 18 32 T30 32" stroke="#007acc" stroke-width="2" fill="none" opacity="0.6"/>
  <path d="M34 32 Q40 30 46 32 T58 32" stroke="#007acc" stroke-width="2" fill="none" opacity="0.6"/>

  <!-- Indicador AI -->
  <text x="32" y="8" text-anchor="middle" font-family="Arial, sans-serif" font-size="8" font-weight="bold" fill="#007acc">AI</text>
</svg>
