<svg xmlns="http://www.w3.org/2000/svg" viewBox="0 0 64 64" width="64" height="64">
  <defs>
    <linearGradient id="gisGrad" x1="0%" y1="0%" x2="100%" y2="100%">
      <stop offset="0%" style="stop-color:#007acc;stop-opacity:1" />
      <stop offset="100%" style="stop-color:#005a9c;stop-opacity:1" />
    </linearGradient>
  </defs>

  <!-- Marco del mapa -->
  <rect x="6" y="10" width="52" height="38" rx="4" ry="4" fill="url(#gisGrad)" stroke="#004a7c" stroke-width="1.5"/>

  <!-- Contenido del mapa (líneas geográficas) -->
  <path d="M12 20 Q25 16 38 20 T56 24" stroke="#e0f3ff" stroke-width="2" fill="none"/>
  <path d="M10 30 Q28 26 45 30 Q52 32 58 28" stroke="#e0f3ff" stroke-width="1.5" fill="none"/>
  <path d="M8 38 Q20 34 35 38 Q48 42 58 38" stroke="#e0f3ff" stroke-width="1.5" fill="none"/>

  <!-- Puntos de ubicación -->
  <circle cx="22" cy="24" r="3" fill="#ffcc00" stroke="#ff9900" stroke-width="1"/>
  <circle cx="38" cy="28" r="3" fill="#ff6666" stroke="#cc0000" stroke-width="1"/>
  <circle cx="48" cy="36" r="3" fill="#66ff66" stroke="#00cc00" stroke-width="1"/>

  <!-- Marcador principal -->
  <path d="M32 12 C28 12 25 15 25 19 C25 23 32 32 32 32 S39 23 39 19 C39 15 36 12 32 12 Z" fill="#ff3333" stroke="#cc0000" stroke-width="1"/>
  <circle cx="32" cy="19" r="3" fill="#ffffff"/>

  <!-- Brújula -->
  <circle cx="50" cy="54" r="6" fill="#007acc" stroke="#004a7c" stroke-width="1"/>
  <path d="M50 50 L50 58 M46 54 L54 54" stroke="#ffffff" stroke-width="1.5" stroke-linecap="round"/>
  <path d="M50 50 L52 52" stroke="#ffcc00" stroke-width="2" stroke-linecap="round"/>
</svg>
